<svg width="375" height="97" viewBox="0 0 375 97" fill="none" xmlns="http://www.w3.org/2000/svg">
<path d="M-7.78267 95H-8.78267V96H-7.78267V95ZM-7.78267 0.454542V-0.545458H-8.78267V0.454542H-7.78267ZM12.2067 0.454542H13.2067V-0.545458H12.2067V0.454542ZM12.2067 42.1413H11.2067V43.1413H12.2067V42.1413ZM13.4531 42.1413V43.1413H13.9277L14.2278 42.7736L13.4531 42.1413ZM47.4766 0.454542V-0.545458H47.0019L46.7018 -0.177761L47.4766 0.454542ZM71.4361 0.454542L72.206 1.09266L73.5637 -0.545458H71.4361V0.454542ZM36.3509 42.7876L35.5809 42.1495L35.1012 42.7283L35.5239 43.3499L36.3509 42.7876ZM71.8516 95V96H73.7407L72.6785 94.4377L71.8516 95ZM47.9382 95L47.106 95.5545L47.4029 96H47.9382V95ZM22.0398 56.1293L22.872 55.5748L22.1226 54.4501L21.2662 55.4955L22.0398 56.1293ZM12.2067 68.1321L11.4331 67.4984L11.2067 67.7748V68.1321H12.2067ZM12.2067 95V96H13.2067V95H12.2067ZM-6.78267 95V0.454542H-8.78267V95H-6.78267ZM-7.78267 1.45454H12.2067V-0.545458H-7.78267V1.45454ZM11.2067 0.454542V42.1413H13.2067V0.454542H11.2067ZM12.2067 43.1413H13.4531V41.1413H12.2067V43.1413ZM14.2278 42.7736L48.2513 1.08685L46.7018 -0.177761L12.6784 41.509L14.2278 42.7736ZM47.4766 1.45454H71.4361V-0.545458H47.4766V1.45454ZM70.6661 -0.183575L35.5809 42.1495L37.1208 43.4258L72.206 1.09266L70.6661 -0.183575ZM35.5239 43.3499L71.0246 95.5623L72.6785 94.4377L37.1778 42.2254L35.5239 43.3499ZM71.8516 94H47.9382V96H71.8516V94ZM48.7704 94.4455L22.872 55.5748L21.2076 56.6837L47.106 95.5545L48.7704 94.4455ZM21.2662 55.4955L11.4331 67.4984L12.9802 68.7658L22.8133 56.763L21.2662 55.4955ZM11.2067 68.1321V95H13.2067V68.1321H11.2067ZM12.2067 94H-7.78267V96H12.2067V94ZM140.245 0.454542V-0.545458H139.245V0.454542H140.245ZM160.234 0.454542H161.234V-0.545458H160.234V0.454542ZM155.294 79.9503L154.451 79.4131L154.449 79.4167L155.294 79.9503ZM141.583 92.0455L142.021 92.9445L142.025 92.9427L141.583 92.0455ZM100.451 92.0455L100.009 92.9427L100.013 92.9445L100.451 92.0455ZM86.7397 79.9503L85.894 80.4839L86.7397 79.9503ZM81.8462 0.454542V-0.545458H80.8462V0.454542H81.8462ZM101.836 0.454542H102.836V-0.545458H101.836V0.454542ZM104.19 69.7479L103.318 70.2368L103.322 70.244L104.19 69.7479ZM110.93 76.3494L110.446 77.2245H110.446L110.93 76.3494ZM131.15 76.3494L130.666 75.4744L130.662 75.4766L131.15 76.3494ZM137.844 69.7479L136.976 69.2517L136.972 69.259L137.844 69.7479ZM140.245 1.45454H160.234V-0.545458H140.245V1.45454ZM159.234 0.454542V61.8537H161.234V0.454542H159.234ZM159.234 61.8537C159.234 68.5817 157.629 74.4226 154.451 79.4131L156.138 80.4875C159.546 75.1371 161.234 68.9135 161.234 61.8537H159.234ZM154.449 79.4167C151.292 84.4197 146.867 88.3307 141.142 91.1482L142.025 92.9427C148.057 89.9742 152.772 85.8218 156.14 80.4839L154.449 79.4167ZM141.146 91.1464C135.428 93.9304 128.735 95.3388 121.04 95.3388V97.3388C128.98 97.3388 135.982 95.8849 142.021 92.9445L141.146 91.1464ZM121.04 95.3388C113.314 95.3388 106.606 93.9302 100.888 91.1464L100.013 92.9445C106.052 95.8852 113.07 97.3388 121.04 97.3388V95.3388ZM100.892 91.1482C95.1673 88.3307 90.7421 84.4197 87.5854 79.4167L85.894 80.4839C89.2619 85.8218 93.9774 89.9742 100.009 92.9427L100.892 91.1482ZM87.5854 79.4167C84.4364 74.4257 82.8462 68.5835 82.8462 61.8537H80.8462C80.8462 68.9117 82.5184 75.134 85.894 80.4839L87.5854 79.4167ZM82.8462 61.8537V0.454542H80.8462V61.8537H82.8462ZM81.8462 1.45454H101.836V-0.545458H81.8462V1.45454ZM100.836 0.454542V60.1456H102.836V0.454542H100.836ZM100.836 60.1456C100.836 63.8964 101.655 67.2693 103.318 70.2368L105.062 69.259C103.586 66.6251 102.836 63.5965 102.836 60.1456H100.836ZM103.322 70.244C105.015 73.2079 107.397 75.5377 110.446 77.2245L111.414 75.4744C108.677 73.9604 106.565 71.8892 105.058 69.2517L103.322 70.244ZM110.446 77.2245C113.51 78.9193 117.052 79.75 121.04 79.75V77.75C117.335 77.75 114.136 76.9803 111.414 75.4744L110.446 77.2245ZM121.04 79.75C125.058 79.75 128.602 78.9201 131.638 77.2223L130.662 75.4766C127.974 76.9796 124.778 77.75 121.04 77.75V79.75ZM131.634 77.2245C134.685 75.5368 137.053 73.2048 138.716 70.2368L136.972 69.259C135.496 71.8923 133.401 73.9613 130.666 75.4744L131.634 77.2245ZM138.712 70.244C140.409 67.2752 141.245 63.8998 141.245 60.1456H139.245C139.245 63.5931 138.48 66.6192 136.976 69.2517L138.712 70.244ZM141.245 60.1456V0.454542H139.245V60.1456H141.245ZM176.68 0.454542V-0.545458H175.68V0.454542H176.68ZM201.332 0.454542L202.257 0.0752811L202.003 -0.545458H201.332V0.454542ZM227.369 63.9773L226.444 64.3565L226.698 64.9773H227.369V63.9773ZM228.477 63.9773V64.9773H229.148L229.402 64.3565L228.477 63.9773ZM254.514 0.454542V-0.545458H253.843L253.589 0.0752811L254.514 0.454542ZM279.166 0.454542H280.166V-0.545458H279.166V0.454542ZM279.166 95V96H280.166V95H279.166ZM259.777 95H258.777V96H259.777V95ZM259.777 33.4624H260.777V32.4624H259.777V33.4624ZM258.992 33.4624V32.4624H258.315L258.064 33.0905L258.992 33.4624ZM234.525 94.5384V95.5384H235.201L235.453 94.9102L234.525 94.5384ZM221.322 94.5384L220.393 94.909L220.644 95.5384H221.322V94.5384ZM196.854 33.2315L197.783 32.8609L197.532 32.2315H196.854V33.2315ZM196.069 33.2315V32.2315H195.069V33.2315H196.069ZM196.069 95V96H197.069V95H196.069ZM176.68 95H175.68V96H176.68V95ZM176.68 1.45454H201.332V-0.545458H176.68V1.45454ZM200.407 0.833803L226.444 64.3565L228.294 63.598L202.257 0.0752811L200.407 0.833803ZM227.369 64.9773H228.477V62.9773H227.369V64.9773ZM229.402 64.3565L255.439 0.833803L253.589 0.0752811L227.552 63.598L229.402 64.3565ZM254.514 1.45454H279.166V-0.545458H254.514V1.45454ZM278.166 0.454542V95H280.166V0.454542H278.166ZM279.166 94H259.777V96H279.166V94ZM260.777 95V33.4624H258.777V95H260.777ZM259.777 32.4624H258.992V34.4624H259.777V32.4624ZM258.064 33.0905L233.596 94.1665L235.453 94.9102L259.92 33.8342L258.064 33.0905ZM234.525 93.5384H221.322V95.5384H234.525V93.5384ZM222.25 94.1677L197.783 32.8609L195.925 33.6022L220.393 94.909L222.25 94.1677ZM196.854 32.2315H196.069V34.2315H196.854V32.2315ZM195.069 33.2315V95H197.069V33.2315H195.069ZM196.069 94H176.68V96H196.069V94ZM177.68 95V0.454542H175.68V95H177.68ZM295.635 95H294.635V96H295.635V95ZM295.635 0.454542V-0.545458H294.635V0.454542H295.635ZM353.988 6.13281L353.505 7.00845L353.508 7.01011L353.988 6.13281ZM369.822 22.3366L368.936 22.8008L368.938 22.8038L369.822 22.3366ZM369.822 73.0256L368.937 72.56L368.936 72.563L369.822 73.0256ZM353.895 89.3217L353.416 88.4443L353.414 88.4452L353.895 89.3217ZM315.625 77.8729H314.625V78.8729H315.625V77.8729ZM343.231 74.7337L343.692 75.6212L343.694 75.6199L343.231 74.7337ZM352.372 64.9006L351.464 64.4811L351.463 64.4839L352.372 64.9006ZM352.372 30.5078L351.463 30.9245L351.465 30.9297L352.372 30.5078ZM343.277 20.7209L343.738 19.8333L343.277 20.7209ZM315.625 17.5817V16.5817H314.625V17.5817H315.625ZM329.151 94H295.635V96H329.151V94ZM296.635 95V0.454542H294.635V95H296.635ZM295.635 1.45454H329.428V-0.545458H295.635V1.45454ZM329.428 1.45454C338.805 1.45454 346.818 3.32022 353.505 7.00845L354.471 5.25718C347.431 1.37438 339.071 -0.545458 329.428 -0.545458V1.45454ZM353.508 7.01011C360.195 10.6685 365.333 15.9245 368.936 22.8008L370.708 21.8725C366.925 14.6531 361.507 9.10663 354.468 5.25552L353.508 7.01011ZM368.938 22.8038C372.57 29.678 374.408 37.9429 374.408 47.6349H376.408C376.408 37.6916 374.522 29.0909 370.706 21.8695L368.938 22.8038ZM374.408 47.6349C374.408 57.3582 372.57 65.6544 368.937 72.56L370.707 73.4912C374.522 66.2395 376.408 57.6087 376.408 47.6349H374.408ZM368.936 72.563C365.333 79.4683 360.164 84.7549 353.416 88.4443L354.375 90.1992C361.475 86.3175 366.925 80.7401 370.709 73.4881L368.936 72.563ZM353.414 88.4452C346.697 92.1337 338.622 94 329.151 94V96C338.885 96 347.306 94.0808 354.377 90.1983L353.414 88.4452ZM315.625 78.8729H328.32V76.8729H315.625V78.8729ZM328.32 78.8729C334.343 78.8729 339.482 77.8067 343.692 75.6212L342.77 73.8461C338.917 75.8462 334.115 76.8729 328.32 76.8729V78.8729ZM343.694 75.6199C347.966 73.3868 351.163 69.937 353.281 65.3172L351.463 64.4839C349.518 68.7278 346.621 71.8334 342.768 73.8474L343.694 75.6199ZM353.28 65.32C355.423 60.6817 356.465 54.7694 356.465 47.6349H354.465C354.465 54.5961 353.445 60.1942 351.464 64.4811L353.28 65.32ZM356.465 47.6349C356.465 40.561 355.422 34.694 353.278 30.086L351.465 30.9297C353.445 35.1852 354.465 40.7364 354.465 47.6349H356.465ZM353.281 30.0912C351.164 25.4726 347.982 22.0365 343.738 19.8333L342.817 21.6084C346.636 23.5908 349.517 26.6793 351.463 30.9245L353.281 30.0912ZM343.738 19.8333C339.528 17.6478 334.389 16.5817 328.366 16.5817V18.5817C334.161 18.5817 338.964 19.6084 342.817 21.6084L343.738 19.8333ZM328.366 16.5817H315.625V18.5817H328.366V16.5817ZM314.625 17.5817V77.8729H316.625V17.5817H314.625Z" fill="black" fill-opacity="0.1"/>
</svg>
