<?xml version="1.0" standalone="no"?>
<!DOCTYPE svg PUBLIC "-//W3C//DTD SVG 20010904//EN"
 "http://www.w3.org/TR/2001/REC-SVG-20010904/DTD/svg10.dtd">
<svg version="1.0" xmlns="http://www.w3.org/2000/svg"
 width="260.000000pt" height="260.000000pt" viewBox="0 0 260.000000 260.000000"
 preserveAspectRatio="xMidYMid meet">
<metadata>
Created by potrace 1.14, written by Peter Selinger 2001-2017
</metadata>
<g transform="translate(0.000000,260.000000) scale(0.100000,-0.100000)"
fill="#000000" stroke="none">
<path d="M0 1770 c0 -547 3 -830 10 -830 6 0 10 -9 10 -20 0 -11 -4 -20 -10
-20 -7 0 -10 -157 -10 -450 l0 -450 246 0 c171 0 243 3 239 11 -4 6 -4 25 -1
43 6 29 10 33 32 28 33 -6 40 -26 20 -57 -10 -15 -12 -25 -5 -25 6 0 13 9 16
20 3 11 9 20 14 20 5 0 9 7 9 15 0 8 5 15 10 15 7 0 7 -6 0 -19 -12 -24 -13
-51 -1 -51 4 0 11 20 14 45 4 25 14 57 23 71 13 19 14 28 5 37 -10 9 -11 8 -6
-4 4 -10 -3 -28 -17 -44 -21 -24 -29 -26 -58 -20 -28 6 -31 9 -19 19 31 23 60
76 54 96 -4 11 -31 39 -61 61 -30 22 -54 43 -54 48 0 5 -17 21 -37 37 -35 26
-36 26 -20 4 10 -15 14 -33 11 -49 -6 -25 -6 -25 9 -6 16 20 16 20 37 0 16
-17 21 -35 22 -85 2 -68 -7 -110 -23 -110 -17 0 -49 64 -49 98 0 17 -8 40 -18
50 -43 46 -61 72 -52 77 14 9 12 25 -2 23 -16 -4 -11 54 6 64 8 6 7 8 -2 8 -7
0 -17 -11 -22 -25 l-10 -26 -24 23 c-33 31 -46 68 -46 131 0 64 8 94 26 101 8
3 63 -46 138 -122 68 -70 140 -135 158 -145 31 -17 31 -17 8 0 -35 24 -160
145 -160 153 0 4 13 10 29 13 24 5 28 10 24 28 -5 19 -11 21 -59 17 -52 -4
-54 -4 -85 35 -24 30 -37 38 -55 34 -13 -2 -24 -3 -24 -2 0 1 9 28 20 61 26
78 26 102 -2 106 -20 3 -20 4 -5 19 9 10 14 25 10 38 -4 15 -1 21 10 21 9 0
18 -13 22 -32 7 -31 8 -31 35 33 l27 64 108 7 c127 9 139 15 119 63 -18 44
-18 79 1 95 8 7 15 9 15 6 0 -4 10 2 22 14 26 24 61 26 78 5 14 -17 3 -20 -19
-6 -11 7 -18 2 -28 -17 -13 -23 -12 -28 3 -39 23 -17 29 -16 48 3 19 18 20 38
5 66 -8 14 -7 28 1 49 10 23 19 29 42 29 25 0 28 2 19 14 -9 11 -8 17 8 28 22
16 18 30 -5 21 -9 -3 -3 17 16 56 31 62 31 62 108 76 15 3 55 13 90 23 74 20
75 23 33 147 -16 47 -26 87 -22 89 3 2 30 11 59 20 28 10 52 21 52 24 -2 29
-71 119 -112 146 -15 10 -30 31 -33 47 -4 16 -11 31 -16 34 -5 4 -9 10 -9 15
0 18 77 -23 125 -66 44 -39 55 -44 85 -40 19 3 44 8 54 12 13 5 17 4 13 -3 -4
-6 -1 -10 5 -9 30 4 15 20 -38 42 -41 16 -78 43 -126 91 -61 61 -68 71 -66
103 3 34 0 37 -81 90 -82 53 -84 55 -54 58 23 2 30 7 26 18 -4 11 8 14 68 14
64 -1 72 -2 56 -14 -16 -13 -16 -14 5 -18 25 -4 71 4 67 12 -1 3 7 24 19 46
24 46 108 126 162 154 44 23 118 34 160 25 29 -6 30 -8 13 -21 -10 -7 -30 -14
-44 -14 -62 0 -146 -46 -192 -105 -23 -29 -25 -34 -10 -32 10 2 34 13 53 25
l35 22 3 -40 c4 -50 18 -52 20 -3 2 60 18 68 131 67 114 -1 152 -17 231 -98
53 -55 39 -59 -41 -10 -44 27 -73 38 -112 41 l-52 3 40 -13 c22 -7 51 -19 65
-26 33 -17 131 -84 128 -87 -2 -1 -24 0 -50 3 -46 5 -62 17 -35 26 6 2 3 2 -8
0 -11 -3 -44 -9 -74 -13 -30 -5 -61 -16 -70 -25 -15 -15 -14 -15 13 -5 36 13
45 6 23 -18 -10 -10 -17 -22 -17 -27 0 -4 9 4 21 19 60 76 261 -17 326 -151 9
-18 13 -39 9 -50 -6 -15 -10 -13 -22 16 -11 26 -17 32 -26 23 -8 -8 -16 -5
-30 13 -52 66 -111 84 -190 57 -45 -16 -48 -19 -48 -53 0 -21 -9 -50 -23 -70
-21 -31 -26 -66 -8 -55 4 3 13 0 21 -6 12 -8 12 -9 -2 -4 -10 3 -18 2 -18 -3
0 -5 -7 -8 -16 -7 -9 0 -22 -8 -30 -19 -13 -19 -12 -21 13 -20 41 0 42 -30 1
-42 -25 -7 -32 -14 -31 -31 3 -27 -23 -20 -30 9 -7 28 -32 23 -59 -10 -28 -36
-63 -33 -107 8 -22 20 -34 25 -50 20 -18 -7 -19 -11 -7 -33 15 -30 52 -60 84
-70 22 -7 22 -9 7 -32 -8 -13 -12 -24 -7 -24 14 0 43 36 35 44 -4 4 3 9 15 13
12 3 22 13 22 23 0 13 6 16 28 12 35 -7 95 -54 80 -63 -6 -4 6 -12 28 -17 49
-13 192 -8 207 7 6 6 17 11 25 11 7 0 30 18 49 40 28 31 41 38 59 34 18 -5 26
0 38 24 8 16 12 39 9 52 -5 20 -3 22 13 15 10 -4 43 -10 72 -13 43 -4 53 -8
49 -21 -2 -9 5 -25 16 -36 l19 -20 -4 20 c-3 17 2 20 38 19 64 -1 77 -9 70
-45 l-6 -31 18 22 18 22 27 -32 c15 -17 25 -35 22 -40 -12 -19 -234 -115 -304
-131 -34 -8 -46 -7 -53 3 -6 10 -8 8 -8 -4 0 -10 -7 -18 -15 -18 -8 0 -25 -21
-39 -47 -19 -39 -28 -47 -52 -48 -25 0 -29 -5 -41 -54 -12 -44 -12 -56 -1 -62
21 -14 48 -10 54 6 4 8 16 15 28 15 15 0 27 9 34 25 15 34 15 55 0 55 -7 0
-14 14 -15 30 -2 26 1 30 23 30 17 0 23 4 18 12 -5 8 3 9 31 5 30 -5 72 5 203
49 91 30 167 52 170 50 2 -3 1 -22 -2 -42 -5 -24 -14 -38 -27 -41 -14 -4 -17
-9 -9 -18 7 -9 0 -22 -26 -48 -45 -47 -36 -48 15 -1 33 29 43 34 60 25 32 -17
39 -13 10 7 -20 13 -24 22 -18 37 4 11 8 31 8 45 2 36 12 48 46 54 17 3 54 12
83 20 56 15 52 17 92 -31 14 -17 15 -16 18 5 7 44 60 22 86 -37 16 -34 17 -48
7 -102 -10 -62 -6 -78 22 -79 4 0 7 104 7 230 l0 230 -35 -14 c-152 -64 -213
-85 -233 -79 -19 5 -10 14 65 66 49 33 109 80 135 104 26 24 52 43 58 43 5 0
10 14 10 31 0 30 -1 31 -23 16 -13 -8 -44 -16 -68 -17 -106 -3 -109 -4 -103
-22 3 -10 1 -18 -5 -18 -6 0 -11 -3 -11 -8 0 -4 19 -6 43 -5 l42 3 -25 -19
c-76 -61 -175 -129 -182 -125 -4 2 -2 17 3 33 12 33 0 70 -31 101 -21 21 -21
22 -3 53 23 38 93 81 198 117 44 16 80 28 81 27 0 -1 13 -20 27 -42 l27 -39
-31 -19 c-42 -27 -29 -32 20 -7 l41 20 0 290 0 290 -720 0 c-712 0 -720 0
-720 -20 0 -11 -15 -40 -32 -64 -18 -24 -50 -68 -70 -96 l-38 -53 0 50 c0 59
41 132 92 163 33 20 33 20 7 20 -32 0 -91 -60 -114 -117 -9 -21 -19 -73 -22
-115 l-6 -78 -51 1 c-28 1 -41 4 -28 6 17 3 22 11 22 33 0 16 4 32 10 35 6 4
10 55 10 121 l0 114 -470 0 -470 0 0 -830z m829 658 c29 -113 32 -105 -46
-110 -68 -5 -103 3 -103 24 0 11 119 138 130 138 3 0 11 -24 19 -52z m779 12
c13 -9 6 -10 -32 -6 -27 3 -65 6 -85 7 -30 0 -33 2 -16 10 25 11 109 4 133
-11z m-9 -21 c92 -11 115 -20 130 -48 10 -17 5 -17 -67 4 -204 60 -207 63 -63
44z m-799 -189 c0 -5 -2 -10 -4 -10 -3 0 -8 5 -11 10 -3 6 -1 10 4 10 6 0 11
-4 11 -10z m1306 -42 c-1 -7 -14 -26 -30 -43 l-28 -30 7 30 c7 28 29 55 46 55
4 0 6 -6 5 -12z m33 -348 c-1 -49 -6 -90 -11 -90 -5 0 -6 5 -3 11 4 6 1 10 -6
8 -8 -1 -39 -1 -69 0 -53 1 -56 2 -77 41 l-21 40 45 27 c46 27 108 52 131 53
10 0 12 -22 11 -90z m-328 43 c13 -16 12 -17 -3 -4 -10 7 -18 15 -18 17 0 8 8
3 21 -13z m423 -12 c12 -22 12 -31 3 -41 -9 -10 -9 -11 2 -5 9 5 12 3 9 -5
-13 -39 -48 3 -48 55 0 33 16 31 34 -4z m-383 -8 c13 -16 12 -17 -3 -4 -10 7
-18 15 -18 17 0 8 8 3 21 -13z m-59 -28 c-6 -34 -13 -32 -10 4 1 16 5 28 9 26
3 -3 4 -16 1 -30z m15 -45 c-1 -12 -5 -16 -10 -11 -5 5 -6 14 -3 20 11 16 15
13 13 -9z m-335 -52 c13 -21 9 -31 -7 -18 -8 7 -15 9 -15 5 0 -4 -7 -2 -15 5
-8 7 -15 16 -15 21 0 12 42 1 52 -13z m763 -66 c-3 -3 -11 0 -18 7 -9 10 -8
11 6 5 10 -3 15 -9 12 -12z m-1400 -42 c13 -21 -47 -261 -70 -284 -8 -7 -35
-17 -61 -21 -29 -4 -66 -20 -98 -42 -90 -64 -209 -155 -294 -227 -135 -115
-129 -111 -146 -97 -8 7 -25 9 -40 5 -14 -3 -26 -3 -26 0 0 5 102 139 192 249
17 21 49 52 72 69 l41 30 -35 -6 c-19 -3 -78 -10 -130 -16 -52 -6 -113 -13
-134 -16 -35 -6 -38 -4 -31 12 18 45 23 84 10 84 -6 0 -20 9 -31 21 l-18 20
54 -7 c30 -4 56 -10 58 -14 2 -5 11 -6 21 -3 10 2 40 1 67 -4 68 -13 134 -5
140 16 3 9 12 31 20 49 13 31 16 32 71 32 32 0 95 -9 141 -20 46 -11 90 -20
98 -20 12 0 60 89 95 178 9 24 24 29 34 12z m-525 -165 c-15 -18 -45 -19 -85
0 -29 13 -28 13 34 14 55 1 62 -1 51 -14z m-172 -887 c-7 -20 -48 -23 -48 -4
0 11 9 16 26 16 16 0 24 -5 22 -12z m92 -103 c0 -17 -2 -18 -25 -9 -13 5 -14
8 -3 15 19 13 28 11 28 -6z m-15 -95 c3 -5 -1 -10 -9 -10 -9 0 -16 5 -16 10 0
6 4 10 9 10 6 0 13 -4 16 -10z m329 -156 c25 -25 19 -57 -19 -94 l-35 -34 9
32 c6 18 6 44 2 60 -14 49 10 70 43 36z"/>
<path d="M1175 2290 c-19 -8 -19 -9 3 -9 12 -1 22 4 22 9 0 6 -1 10 -2 9 -2 0
-12 -4 -23 -9z"/>
<path d="M2293 1973 c18 -21 18 -22 0 -32 -16 -9 -16 -10 -1 -11 9 0 25 -3 35
-7 15 -6 16 -4 6 9 -7 8 -11 17 -9 19 2 2 -8 13 -22 23 l-27 20 18 -21z"/>
<path d="M1190 1835 c14 -17 13 -18 -2 -12 -10 3 -18 2 -18 -2 0 -12 29 -23
41 -15 14 9 11 18 -13 33 -22 13 -22 13 -8 -4z"/>
<path d="M1840 1663 c11 -8 18 -17 16 -21 -2 -4 10 -8 26 -8 24 -1 27 1 14 8
-9 5 -16 14 -16 21 0 7 -14 12 -30 13 -29 1 -30 1 -10 -13z"/>
<path d="M1598 1603 c7 -3 16 -2 19 1 4 3 -2 6 -13 5 -11 0 -14 -3 -6 -6z"/>
<path d="M1221 1559 c-7 -16 -24 -35 -38 -43 -25 -12 -23 -14 58 -46 119 -47
199 -88 199 -102 0 -12 99 -168 106 -168 3 0 -3 16 -11 37 -8 20 -14 37 -12
39 1 2 18 -18 37 -43 19 -26 41 -48 48 -51 19 -6 15 34 -9 79 -28 56 -19 70
14 20 41 -62 43 -49 3 23 -19 36 -28 62 -21 60 23 -9 5 34 -23 56 -13 11 -37
20 -52 20 -37 0 -165 60 -215 100 -64 51 -69 52 -84 19z"/>
<path d="M2345 1480 c3 -5 8 -10 11 -10 2 0 4 5 4 10 0 6 -5 10 -11 10 -5 0
-7 -4 -4 -10z"/>
<path d="M2074 1385 c2 -16 9 -41 15 -55 10 -23 11 -22 7 11 -2 20 -9 45 -15
55 -10 17 -11 15 -7 -11z"/>
<path d="M2582 1343 c1 -5 -1 -23 -5 -42 -5 -24 -11 -32 -22 -27 -17 6 -20
-11 -6 -33 7 -11 12 -9 24 10 21 32 33 99 18 99 -6 0 -10 -3 -9 -7z"/>
<path d="M2452 1265 c0 -16 2 -22 5 -12 2 9 2 23 0 30 -3 6 -5 -1 -5 -18z"/>
<path d="M733 1194 c-9 -25 13 -40 26 -16 10 19 6 32 -11 32 -5 0 -11 -7 -15
-16z"/>
<path d="M592 1080 c0 -14 2 -19 5 -12 2 6 2 18 0 25 -3 6 -5 1 -5 -13z"/>
<path d="M2585 1001 c-3 -5 -1 -12 5 -16 5 -3 10 1 10 9 0 18 -6 21 -15 7z"/>
<path d="M2500 925 c20 -12 22 -14 7 -15 -11 0 -35 -7 -54 -16 -25 -12 -31
-19 -21 -25 9 -6 5 -9 -12 -9 -31 0 -138 -114 -119 -126 7 -4 9 -3 5 4 -7 12
44 52 66 52 8 0 23 9 34 21 39 43 101 71 149 67 45 -3 45 -3 45 29 l0 33 -62
0 c-60 -1 -62 -1 -38 -15z"/>
<path d="M2290 900 c-8 -16 -8 -20 4 -20 8 0 18 5 21 10 3 6 20 10 36 10 18 0
28 4 24 10 -12 19 -73 12 -85 -10z"/>
<path d="M1905 802 c-28 -6 -33 -18 -26 -55 5 -24 13 -33 31 -35 20 -3 22 -2
12 11 -11 13 -6 13 34 6 60 -11 69 -20 83 -73 9 -35 24 -56 76 -102 35 -32 90
-86 121 -122 52 -59 55 -65 40 -80 -10 -10 -29 -15 -51 -14 -19 2 -35 -2 -35
-7 0 -16 -53 -24 -65 -9 -15 21 -41 28 -54 15 -8 -8 -14 -8 -23 1 -9 9 -8 12
7 12 18 0 17 2 -5 20 -17 14 -41 20 -77 20 -34 0 -53 4 -53 12 0 7 -5 6 -12
-4 -7 -9 -20 -18 -28 -20 -11 -3 -6 -9 15 -20 l30 -16 -37 -7 c-21 -4 -35 -11
-32 -16 3 -5 -1 -9 -8 -9 -8 0 -6 -5 5 -11 9 -6 26 -7 37 -4 23 7 29 -19 7
-32 -7 -4 -33 -30 -57 -58 -36 -41 -33 -39 21 14 l66 64 69 4 c109 7 117 6
130 -11 21 -29 59 -19 113 30 50 45 75 51 87 21 5 -14 -35 -104 -89 -202 -27
-47 -40 -61 -63 -65 -31 -6 -48 -40 -19 -40 9 0 13 -5 10 -10 -4 -7 70 -10
214 -10 l221 0 0 334 c0 224 -3 337 -11 341 -19 13 -86 16 -113 6 -29 -12 -34
-32 -11 -51 8 -7 12 -16 9 -21 -3 -5 -1 -9 5 -9 5 0 9 -13 9 -29 -1 -23 -7
-31 -26 -36 -28 -7 -54 -30 -45 -39 4 -3 1 -6 -5 -6 -6 0 -9 -7 -6 -15 4 -8 3
-15 -1 -15 -16 0 -109 63 -168 113 -35 29 -85 68 -112 87 -28 18 -75 55 -105
81 -65 55 -88 67 -115 61z m55 -442 c0 -5 -2 -10 -4 -10 -3 0 -8 5 -11 10 -3
6 -1 10 4 10 6 0 11 -4 11 -10z m60 -24 c0 -11 -19 -15 -25 -6 -3 5 1 10 9 10
9 0 16 -2 16 -4z m164 -295 c4 -5 -3 -7 -14 -4 -23 6 -26 13 -6 13 8 0 17 -4
20 -9z"/>
<path d="M848 623 c7 -3 16 -2 19 1 4 3 -2 6 -13 5 -11 0 -14 -3 -6 -6z"/>
<path d="M967 473 c-16 -3 -34 -15 -44 -31 -9 -15 -25 -37 -36 -49 -10 -12
-16 -26 -13 -31 3 -5 -13 -22 -37 -38 -23 -16 -48 -37 -55 -46 -14 -19 -48
-26 -37 -8 7 12 -2 12 -30 1 -18 -7 -16 -9 12 -15 26 -6 31 -11 24 -24 -4 -9
-16 -34 -26 -55 -14 -29 -24 -37 -38 -33 -14 3 -16 2 -7 -9 8 -9 8 -15 0 -20
-6 -3 -8 -11 -4 -16 3 -5 -6 -30 -20 -54 l-25 -45 122 0 122 0 0 96 c1 79 4
98 18 109 9 6 14 14 12 17 -7 7 60 172 83 206 39 57 40 54 -21 45z"/>
<path d="M1549 357 c-36 -46 -40 -54 -24 -54 8 0 12 4 9 9 -4 5 3 19 13 31 21
23 37 47 31 47 -2 0 -15 -15 -29 -33z"/>
<path d="M1251 274 c0 -11 3 -14 6 -6 3 7 2 16 -1 19 -3 4 -6 -2 -5 -13z"/>
<path d="M1486 263 c-6 -14 -5 -15 5 -6 7 7 10 15 7 18 -3 3 -9 -2 -12 -12z"/>
<path d="M1775 270 c-13 -5 -14 -9 -5 -9 8 0 24 4 35 9 13 5 14 9 5 9 -8 0
-24 -4 -35 -9z"/>
<path d="M1174 249 c-3 -6 -2 -15 3 -20 5 -5 9 -1 9 11 0 23 -2 24 -12 9z"/>
<path d="M1705 250 c-3 -6 1 -7 9 -4 18 7 21 14 7 14 -6 0 -13 -4 -16 -10z"/>
<path d="M1255 240 c3 -6 20 -10 37 -10 38 0 34 5 -10 13 -21 4 -31 3 -27 -3z"/>
<path d="M1465 229 c-11 -17 1 -21 15 -4 8 9 8 15 2 15 -6 0 -14 -5 -17 -11z"/>
<path d="M1310 215 c-14 -8 -20 -14 -14 -15 5 0 19 7 30 15 24 18 16 19 -16 0z"/>
<path d="M1028 193 c17 -2 47 -2 65 0 17 2 3 4 -33 4 -36 0 -50 -2 -32 -4z"/>
<path d="M1163 193 c9 -2 25 -2 35 0 9 3 1 5 -18 5 -19 0 -27 -2 -17 -5z"/>
<path d="M1451 188 c-2 -27 15 -29 35 -5 l19 22 -22 -18 c-21 -18 -21 -18 -26
0 -4 15 -5 16 -6 1z"/>
<path d="M1746 114 c-22 -19 -69 -51 -105 -71 -36 -20 -60 -38 -54 -40 15 -5
140 77 177 116 39 41 31 39 -18 -5z"/>
<path d="M1017 133 c-3 -5 6 -9 20 -10 19 -1 22 1 12 8 -17 11 -26 11 -32 2z"/>
<path d="M1499 103 c-13 -15 -12 -15 9 -4 23 12 28 21 13 21 -5 0 -15 -7 -22
-17z"/>
<path d="M1100 75 c0 -7 9 -16 19 -20 11 -3 21 -16 23 -28 3 -17 5 -15 9 10 5
29 2 33 -23 42 -22 8 -28 7 -28 -4z"/>
<path d="M1218 83 c-32 -5 -35 -13 -10 -34 9 -9 23 -25 30 -35 12 -18 12 -18
3 2 -11 22 -10 42 2 62 5 6 7 11 5 11 -2 -1 -15 -4 -30 -6z"/>
<path d="M1450 75 c-14 -8 -20 -14 -14 -15 5 0 19 7 30 15 24 18 16 19 -16 0z"/>
<path d="M2019 64 c8 -17 7 -25 -4 -34 -26 -22 -16 -28 46 -29 34 0 59 2 56 6
-4 3 -2 12 4 20 9 10 8 13 -1 13 -7 0 -18 7 -24 16 -8 10 -18 13 -31 8 -16 -7
-16 -8 -2 -13 13 -5 12 -8 -8 -17 -17 -9 -22 -8 -19 0 2 6 -3 20 -11 31 -16
20 -16 20 -6 -1z"/>
<path d="M1270 63 c0 -11 61 -50 90 -57 14 -4 5 4 -20 17 -25 14 -44 30 -42
36 1 6 -5 11 -13 11 -8 0 -15 -3 -15 -7z"/>
<path d="M1333 53 c15 -2 37 -2 50 0 12 2 0 4 -28 4 -27 0 -38 -2 -22 -4z"/>
<path d="M1038 30 c-7 -24 -3 -38 8 -28 3 4 4 17 2 30 l-3 23 -7 -25z"/>
<path d="M1716 15 c-19 -15 -19 -15 2 -15 13 0 22 6 22 15 0 18 0 18 -24 0z"/>
</g>
</svg>
