<?xml version="1.0" standalone="no"?>
<!DOCTYPE svg PUBLIC "-//W3C//DTD SVG 20010904//EN"
 "http://www.w3.org/TR/2001/REC-SVG-20010904/DTD/svg10.dtd">
<svg version="1.0" xmlns="http://www.w3.org/2000/svg"
 width="274.000000pt" height="274.000000pt" viewBox="0 0 274.000000 274.000000"
 preserveAspectRatio="xMidYMid meet">
<metadata>
Created by potrace 1.14, written by Peter Selinger 2001-2017
</metadata>
<g transform="translate(0.000000,274.000000) scale(0.100000,-0.100000)"
fill="#000000" stroke="none">
<path d="M735 2679 c-74 -72 -136 -129 -140 -129 -1 0 -8 20 -15 45 -7 25 -18
45 -24 45 -6 0 -89 -29 -184 -65 -96 -36 -179 -65 -185 -65 -7 0 -29 11 -50
25 -30 21 -38 23 -43 11 -3 -8 0 -24 6 -35 15 -29 8 -37 -50 -56 l-50 -17 0
-54 c0 -59 26 -138 44 -131 208 85 229 90 286 79 31 -7 67 -12 79 -12 20 0 22
-3 16 -27 -4 -16 -13 -54 -20 -87 -10 -44 -22 -67 -47 -91 -48 -48 -189 -139
-280 -182 -43 -20 -78 -41 -78 -45 0 -12 148 59 220 105 36 23 88 61 117 84
32 26 53 38 56 30 2 -7 8 6 12 28 13 72 37 149 63 200 23 46 23 49 4 31 -31
-27 -106 -17 -195 27 -83 41 -99 43 -29 3 26 -15 36 -24 22 -20 -40 11 -95 49
-115 80 -10 16 -27 37 -37 48 -35 38 -20 48 25 18 80 -55 130 -67 262 -66 149
2 174 9 200 57 18 34 54 54 42 24 -3 -8 3 -31 14 -53 10 -21 16 -28 13 -15 -5
17 -3 21 6 16 9 -5 11 -4 6 4 -4 6 -11 9 -16 6 -5 -3 -8 3 -8 12 1 10 -2 28
-6 40 -5 16 -1 27 14 40 40 34 121 118 131 136 17 30 -4 16 -66 -44z"/>
<path d="M1115 2730 c27 -12 43 -12 25 0 -8 5 -22 9 -30 9 -10 0 -8 -3 5 -9z"/>
<path d="M1520 2736 c0 -3 14 -12 30 -21 17 -9 30 -13 30 -11 0 3 -13 12 -30
21 -16 9 -30 13 -30 11z"/>
<path d="M1780 2715 c13 -14 26 -25 28 -25 3 0 -5 11 -18 25 -13 14 -26 25
-28 25 -3 0 5 -11 18 -25z"/>
<path d="M2213 2688 c54 -65 89 -117 157 -233 96 -163 205 -298 303 -377 70
-55 79 -47 10 10 -97 81 -217 234 -316 402 -60 103 -171 250 -188 250 -6 0 9
-24 34 -52z"/>
<path d="M995 2685 c22 -21 54 -52 70 -69 17 -18 24 -25 18 -16 -26 34 -10 30
94 -24 58 -31 108 -54 110 -53 6 7 -207 118 -216 113 -12 -8 -43 29 -34 39 5
4 3 5 -4 2 -6 -4 -17 -2 -25 5 -7 7 -22 19 -33 27 -11 7 -2 -3 20 -24z"/>
<path d="M1905 2700 c10 -11 20 -20 23 -20 3 0 -3 9 -13 20 -10 11 -20 20 -23
20 -3 0 3 -9 13 -20z"/>
<path d="M1205 2695 c11 -9 29 -21 40 -26 l20 -10 -20 16 c-11 9 -29 21 -40
26 l-20 10 20 -16z"/>
<path d="M1620 2676 c0 -2 8 -10 18 -17 15 -13 16 -12 3 4 -13 16 -21 21 -21
13z"/>
<path d="M1960 2635 c13 -14 26 -25 28 -25 3 0 -5 11 -18 25 -13 14 -26 25
-28 25 -3 0 5 -11 18 -25z"/>
<path d="M827 2627 c24 -12 71 -47 105 -76 35 -30 50 -40 33 -22 -43 46 -144
121 -163 121 -10 -1 2 -11 25 -23z"/>
<path d="M770 2630 c0 -5 5 -10 12 -10 6 0 9 -3 5 -6 -3 -4 9 -25 28 -48 18
-22 34 -44 34 -48 1 -5 3 -7 5 -5 7 4 121 -108 118 -116 -1 -5 2 -6 8 -2 6 4
29 -13 52 -37 l41 -43 -30 45 c-16 25 -42 63 -56 85 -51 77 -217 219 -217 185z
m61 -41 c16 -11 26 -25 23 -31 -4 -6 -3 -8 3 -5 5 3 34 -18 63 -48 30 -30 51
-55 46 -55 -4 0 2 -9 15 -19 13 -11 22 -22 18 -25 -3 -3 -35 21 -71 54 -36 33
-69 56 -73 52 -5 -4 -5 -2 -2 4 4 7 0 17 -9 24 -8 7 -13 19 -10 27 3 8 2 12
-3 9 -4 -3 -16 3 -26 14 -23 26 -11 25 26 -1z"/>
<path d="M1710 2598 c41 -45 50 -53 50 -45 0 2 -21 23 -47 47 l-48 45 45 -47z"/>
<path d="M1785 2510 c10 -11 20 -20 23 -20 3 0 -3 9 -13 20 -10 11 -20 20 -23
20 -3 0 3 -9 13 -20z"/>
<path d="M1155 2500 c10 -11 20 -20 23 -20 3 0 -3 9 -13 20 -10 11 -20 20 -23
20 -3 0 3 -9 13 -20z"/>
<path d="M2070 2480 c6 -11 13 -20 16 -20 2 0 0 9 -6 20 -6 11 -13 20 -16 20
-2 0 0 -9 6 -20z"/>
<path d="M1810 2476 c0 -2 8 -10 18 -17 15 -13 16 -12 3 4 -13 16 -21 21 -21
13z"/>
<path d="M641 2454 c0 -11 3 -14 6 -6 3 7 2 16 -1 19 -3 4 -6 -2 -5 -13z"/>
<path d="M527 2428 c-18 -18 -21 -23 -7 -10 14 12 31 22 38 22 7 0 12 5 12 10
0 16 -8 12 -43 -22z"/>
<path d="M1020 2456 c0 -2 8 -10 18 -17 15 -13 16 -12 3 4 -13 16 -21 21 -21
13z"/>
<path d="M1419 2426 c13 -16 51 -41 51 -33 0 2 -15 14 -32 27 -21 15 -28 17
-19 6z"/>
<path d="M651 2414 c0 -11 3 -14 6 -6 3 7 2 16 -1 19 -3 4 -6 -2 -5 -13z"/>
<path d="M690 2415 c0 -5 5 -17 10 -25 5 -8 10 -10 10 -5 0 6 -5 17 -10 25 -5
8 -10 11 -10 5z"/>
<path d="M641 2344 c0 -11 3 -14 6 -6 3 7 2 16 -1 19 -3 4 -6 -2 -5 -13z"/>
<path d="M643 2285 c0 -22 2 -30 4 -17 2 12 2 30 0 40 -3 9 -5 -1 -4 -23z"/>
<path d="M1662 2262 c9 -13 34 -35 55 -49 42 -29 38 -24 -26 33 -29 25 -39 30
-29 16z"/>
<path d="M706 2257 c3 -10 9 -15 12 -12 3 3 0 11 -7 18 -10 9 -11 8 -5 -6z"/>
<path d="M2273 2257 c4 -10 7 -31 8 -45 0 -15 3 -22 5 -15 5 12 101 -86 159
-163 8 -10 15 -15 15 -10 0 13 -135 198 -166 226 -21 20 -26 21 -21 7z"/>
<path d="M501 2244 c0 -11 3 -14 6 -6 3 7 2 16 -1 19 -3 4 -6 -2 -5 -13z"/>
<path d="M790 2230 c12 -16 24 -30 26 -30 3 0 -4 14 -16 30 -12 17 -24 30 -26
30 -3 0 4 -13 16 -30z"/>
<path d="M471 2234 c0 -11 3 -14 6 -6 3 7 2 16 -1 19 -3 4 -6 -2 -5 -13z"/>
<path d="M1110 2241 c0 -6 4 -13 10 -16 6 -3 7 1 4 9 -7 18 -14 21 -14 7z"/>
<path d="M2450 2220 c0 -5 5 -10 11 -10 5 0 7 5 4 10 -3 6 -8 10 -11 10 -2 0
-4 -4 -4 -10z"/>
<path d="M493 2130 c0 -36 2 -50 4 -32 2 17 2 47 0 65 -2 17 -4 3 -4 -33z"/>
<path d="M820 2186 c0 -2 8 -10 18 -17 15 -13 16 -12 3 4 -13 16 -21 21 -21
13z"/>
<path d="M1775 2170 c10 -11 20 -20 23 -20 3 0 -3 9 -13 20 -10 11 -20 20 -23
20 -3 0 3 -9 13 -20z"/>
<path d="M960 2145 c19 -19 36 -35 39 -35 3 0 -10 16 -29 35 -19 19 -36 35
-39 35 -3 0 10 -16 29 -35z"/>
<path d="M1437 2169 c7 -7 15 -10 18 -7 3 3 -2 9 -12 12 -14 6 -15 5 -6 -5z"/>
<path d="M661 2154 c0 -11 3 -14 6 -6 3 7 2 16 -1 19 -3 4 -6 -2 -5 -13z"/>
<path d="M770 2124 c6 -14 22 -81 35 -148 92 -447 87 -427 149 -513 70 -96 92
-123 102 -123 4 0 -2 10 -13 23 -61 67 -136 201 -147 260 -4 21 -9 44 -12 50
-5 14 47 98 93 147 17 19 39 45 50 57 l18 22 97 -47 c94 -47 96 -48 70 -60
-15 -6 -52 -33 -81 -59 -30 -27 -57 -46 -60 -43 -5 5 -71 -73 -102 -120 l-17
-25 -13 28 c-11 24 -10 31 7 55 11 15 24 34 29 42 8 13 7 13 -9 1 -22 -18 -60
-91 -47 -91 5 0 13 -9 16 -20 10 -31 27 -24 57 23 16 23 42 58 59 77 l31 35
-23 -35 c-13 -19 -26 -37 -29 -40 -19 -16 -50 -82 -50 -106 1 -27 1 -28 15
-10 14 18 15 18 35 -5 l22 -24 -16 25 c-20 30 -22 60 -4 42 7 -7 18 -12 25
-12 16 0 17 32 1 48 -9 9 -5 19 17 42 16 16 32 30 36 30 4 0 11 -21 17 -47
l10 -48 1 38 c0 21 -4 48 -10 59 -12 23 -12 23 89 111 39 33 39 26 8 -81 -13
-45 -20 -80 -16 -77 9 6 60 148 60 169 0 19 39 22 63 4 9 -7 25 -35 36 -63
l21 -50 -6 40 c-4 22 -15 57 -26 78 -11 22 -16 47 -13 60 5 16 4 18 -3 8 -8
-11 -11 -9 -17 8 -4 13 -9 21 -11 18 -2 -2 3 -20 11 -40 8 -20 15 -39 15 -42
0 -3 -20 6 -45 21 -25 14 -49 24 -52 20 -4 -3 -2 -6 3 -6 6 0 19 -7 30 -15 28
-22 -75 18 -156 61 -85 45 -300 207 -323 245 -23 36 -40 38 -27 3z m123 -121
c42 -32 90 -66 107 -75 36 -21 35 -23 -32 -98 -27 -28 -48 -58 -48 -66 0 -9
-4 -12 -10 -9 -5 3 -12 -6 -16 -20 -9 -37 -19 -20 -32 55 -6 36 -20 107 -32
159 -21 97 -23 111 -16 111 2 0 38 -26 79 -57z"/>
<path d="M896 2095 c27 -33 64 -73 83 -90 41 -36 141 -109 141 -102 0 3 -29
26 -64 51 -35 25 -97 81 -137 123 -58 63 -63 66 -23 18z"/>
<path d="M1960 2131 c-19 -11 -44 -30 -55 -42 l-20 -24 25 21 c80 69 141 70
214 5 30 -26 30 -26 15 -2 -20 32 -76 61 -114 61 -16 -1 -46 -9 -65 -19z"/>
<path d="M2508 2095 c9 -20 18 -32 20 -27 1 5 30 -2 63 -15 34 -14 77 -27 97
-29 28 -4 22 0 -28 19 -66 24 -108 45 -147 73 l-21 15 16 -36z"/>
<path d="M471 2079 c1 -19 5 -47 10 -64 5 -20 6 -9 2 30 -6 66 -14 88 -12 34z"/>
<path d="M1778 2063 c7 -3 16 -2 19 1 4 3 -2 6 -13 5 -11 0 -14 -3 -6 -6z"/>
<path d="M1828 2053 c7 -3 16 -2 19 1 4 3 -2 6 -13 5 -11 0 -14 -3 -6 -6z"/>
<path d="M1875 2049 c-4 -6 -5 -12 -2 -15 2 -3 7 2 10 11 7 17 1 20 -8 4z"/>
<path d="M2004 2037 c-34 -27 -70 -85 -78 -127 l-7 -35 14 30 c18 38 76 95 96
95 22 0 34 -10 51 -45 9 -16 22 -30 30 -30 8 0 18 -13 22 -30 4 -17 5 -6 2 25
-10 104 -74 162 -130 117z m116 -97 c0 -5 -4 -10 -10 -10 -5 0 -10 5 -10 10 0
6 5 10 10 10 6 0 10 -4 10 -10z"/>
<path d="M501 2014 c0 -11 3 -14 6 -6 3 7 2 16 -1 19 -3 4 -6 -2 -5 -13z"/>
<path d="M1439 2006 c25 -26 37 -34 26 -16 -4 6 44 11 137 12 l143 1 -135 7
c-74 4 -148 11 -165 15 l-30 8 24 -27z"/>
<path d="M1798 2023 c6 -2 18 -2 25 0 6 3 1 5 -13 5 -14 0 -19 -2 -12 -5z"/>
<path d="M1800 1987 c0 -2 7 -25 16 -51 12 -34 19 -44 25 -35 15 24 11 59 -6
53 -9 -4 -15 0 -15 9 0 9 -4 19 -10 22 -5 3 -10 4 -10 2z"/>
<path d="M491 1964 c0 -11 3 -14 6 -6 3 7 2 16 -1 19 -3 4 -6 -2 -5 -13z"/>
<path d="M1485 1964 c6 -5 23 -20 40 -34 29 -24 29 -24 10 -2 -11 13 -29 28
-40 34 -11 6 -15 6 -10 2z"/>
<path d="M2182 1889 c-1 -47 -9 -108 -17 -135 -18 -59 -18 -80 -1 -41 l12 28
28 -51 27 -50 -38 -1 c-29 0 -33 -2 -18 -8 17 -7 15 -9 -15 -16 -19 -5 -38 -8
-42 -7 -7 2 -58 -89 -58 -103 0 -3 7 -5 16 -5 8 0 12 5 9 10 -12 19 19 68 51
83 18 9 48 19 68 22 32 6 36 5 37 -14 1 -11 2 -24 3 -28 2 -5 6 -34 10 -66 5
-32 11 -56 13 -53 13 13 -43 296 -64 329 -4 7 -11 53 -14 102 l-5 90 -2 -86z"/>
<path d="M2281 1954 c0 -11 3 -14 6 -6 3 7 2 16 -1 19 -3 4 -6 -2 -5 -13z"/>
<path d="M341 1935 c-13 -14 -51 -41 -85 -60 -59 -34 -70 -50 -12 -20 15 8 32
12 37 9 5 -3 8 0 7 8 -2 8 6 13 19 13 11 0 25 3 29 8 4 4 2 7 -5 7 -7 0 -9 5
-6 10 4 6 10 8 14 5 5 -2 13 7 19 20 14 31 13 31 -17 0z"/>
<path d="M2563 1946 c4 -10 7 -22 7 -27 0 -6 4 -8 9 -5 5 3 15 -1 22 -10 17
-21 104 -64 126 -63 10 0 -2 9 -27 20 -25 11 -67 39 -94 62 -30 25 -47 34 -43
23z"/>
<path d="M1220 1946 c0 -3 9 -10 20 -16 11 -6 20 -8 20 -6 0 3 -9 10 -20 16
-11 6 -20 8 -20 6z"/>
<path d="M2280 1908 c0 -12 3 -18 7 -14 7 7 103 -82 103 -97 0 -4 -6 -5 -12
-1 -7 4 0 -7 16 -24 17 -18 32 -32 34 -32 3 0 -3 9 -13 20 -25 28 -6 24 28 -5
21 -19 27 -33 27 -62 -1 -21 0 -47 2 -58 2 -11 -1 -20 -7 -20 -5 0 -8 4 -7 10
2 5 0 7 -4 2 -4 -4 -17 1 -28 10 -18 15 -18 14 2 -8 29 -33 28 -41 -3 -27 -14
6 -25 14 -25 18 0 7 -45 30 -58 30 -4 0 0 -5 8 -11 12 -8 7 -9 -17 -6 -33 4
-33 3 -31 -37 1 -39 1 -39 5 -7 4 31 6 33 37 28 18 -3 50 -13 72 -22 l39 -16
-38 -14 c-21 -7 -42 -17 -45 -21 -4 -4 2 -4 13 1 41 16 74 18 71 3 -3 -25 -49
-76 -105 -118 -29 -22 -48 -40 -43 -40 14 0 114 83 136 112 l17 23 -5 -30 c-5
-28 -5 -28 6 -7 6 12 20 23 32 23 58 3 155 -4 198 -16 35 -9 48 -9 45 -1 -5
16 -164 47 -214 43 -39 -4 -41 -3 -46 27 -3 17 -1 36 4 42 5 6 6 25 3 42 -4
17 -4 39 0 48 5 13 12 11 44 -14 47 -37 107 -69 96 -51 -21 34 -49 59 -62 54
-17 -6 -40 11 -164 127 -54 49 -98 96 -98 104 0 8 -4 14 -10 14 -5 0 -10 -10
-10 -22z"/>
<path d="M1296 1907 c3 -10 9 -15 12 -12 3 3 0 11 -7 18 -10 9 -11 8 -5 -6z"/>
<path d="M2410 1901 c6 -13 14 -20 17 -17 3 2 22 -6 42 -19 21 -13 57 -30 82
-39 l44 -15 -62 -1 -62 0 24 -37 c43 -67 57 -84 62 -80 2 3 -8 24 -23 46 -15
23 -25 43 -23 45 2 2 42 7 89 11 47 4 98 12 113 19 25 10 17 11 -60 11 -77 0
-95 4 -143 29 -30 16 -68 38 -84 49 l-28 20 12 -22z"/>
<path d="M516 1901 c-7 -11 23 -86 31 -78 3 3 -2 20 -11 38 -9 17 -13 35 -10
40 3 5 3 9 0 9 -3 0 -7 -4 -10 -9z"/>
<path d="M1130 1896 c0 -7 71 -49 75 -44 2 2 -14 14 -36 26 -21 12 -39 21 -39
18z"/>
<path d="M1935 1863 c-26 -7 -35 -21 -35 -55 0 -16 -4 -28 -10 -28 -5 0 -10 5
-10 12 0 6 -3 9 -6 6 -5 -5 10 -42 21 -56 2 -2 12 1 23 7 31 16 62 -12 62 -57
0 -20 -5 -44 -10 -52 -8 -13 -11 -12 -25 5 -8 11 -3 -6 12 -37 28 -59 43 -66
43 -20 0 15 9 45 19 67 28 63 32 91 20 140 -16 63 -46 82 -104 68z"/>
<path d="M245 1830 c-59 -27 -118 -43 -202 -55 -71 -11 -50 -26 24 -19 60 6
128 24 186 49 9 4 17 3 17 -1 0 -12 -151 -214 -220 -295 -33 -39 -41 -52 -21
-34 38 34 164 189 235 289 63 87 59 100 -19 66z"/>
<path d="M1411 1844 c0 -11 3 -14 6 -6 3 7 2 16 -1 19 -3 4 -6 -2 -5 -13z"/>
<path d="M2335 1830 c10 -11 20 -20 23 -20 3 0 -3 9 -13 20 -10 11 -20 20 -23
20 -3 0 3 -9 13 -20z"/>
<path d="M2292 1810 c0 -19 2 -27 5 -17 2 9 2 25 0 35 -3 9 -5 1 -5 -18z"/>
<path d="M1680 1826 c0 -3 9 -10 20 -16 11 -6 20 -8 20 -6 0 3 -9 10 -20 16
-11 6 -20 8 -20 6z"/>
<path d="M1421 1782 c0 -19 3 -31 9 -27 5 3 20 3 34 -1 33 -8 106 -140 188
-336 34 -82 63 -146 65 -144 8 7 -89 244 -147 359 -55 109 -62 138 -27 102 12
-12 87 -181 111 -249 4 -10 9 -17 11 -14 5 5 -56 160 -86 220 -10 20 -19 39
-19 41 0 3 33 -2 73 -9 128 -25 106 -13 -33 17 -168 36 -168 36 -173 57 -3 9
-5 2 -6 -16z"/>
<path d="M422 1769 c-8 -12 -9 -18 -4 -15 6 3 13 0 15 -6 3 -7 6 -1 6 15 1 33
0 33 -17 6z"/>
<path d="M1282 1743 c-6 -20 -7 -32 -2 -27 10 10 25 64 18 64 -3 0 -10 -16
-16 -37z"/>
<path d="M1807 1749 c7 -7 15 -10 18 -7 3 3 -2 9 -12 12 -14 6 -15 5 -6 -5z"/>
<path d="M2300 1714 c0 -49 8 -57 12 -11 1 15 4 27 6 27 11 0 63 -32 59 -37
-3 -2 -15 0 -26 7 -35 18 -23 3 15 -19 19 -12 32 -17 29 -11 -10 16 6 12 29
-7 16 -14 18 -14 8 -2 -7 9 -39 35 -72 58 l-60 42 0 -47z"/>
<path d="M331 1657 c-65 -72 -68 -75 -17 -27 49 47 104 111 94 109 -2 0 -36
-37 -77 -82z"/>
<path d="M1900 1721 c0 -6 4 -13 10 -16 6 -3 7 1 4 9 -7 18 -14 21 -14 7z"/>
<path d="M1752 1705 c7 -7 97 -9 105 -2 3 4 -20 7 -52 7 -32 0 -56 -2 -53 -5z"/>
<path d="M1831 1664 c0 -11 3 -14 6 -6 3 7 2 16 -1 19 -3 4 -6 -2 -5 -13z"/>
<path d="M1392 1640 c0 -14 3 -36 7 -50 l7 -25 8 29 c4 15 5 31 1 34 -3 3 -6
-1 -6 -9 -1 -8 -5 0 -9 16 -7 27 -8 27 -8 5z"/>
<path d="M2126 1635 c-3 -9 0 -15 9 -15 9 0 12 6 9 15 -4 8 -7 15 -9 15 -2 0
-5 -7 -9 -15z"/>
<path d="M325 1604 c-65 -54 -203 -141 -262 -164 -35 -14 -63 -28 -63 -33 0
-22 168 57 261 122 41 29 75 48 77 42 12 -36 -81 -420 -135 -561 -27 -68 -43
-98 -100 -180 l-17 -25 24 20 c32 26 56 57 52 69 -2 5 4 16 12 25 57 65 196
546 196 682 0 35 -6 36 -45 3z"/>
<path d="M1840 1603 c0 -6 5 -15 10 -18 6 -3 10 -11 10 -16 0 -6 -4 -8 -8 -5
-5 3 -2 -27 5 -67 8 -40 20 -106 27 -147 9 -48 14 -62 14 -40 1 19 -5 69 -12
110 -8 41 -12 76 -11 78 1 2 18 -16 36 -40 31 -39 34 -47 30 -101 -3 -68 13
-72 24 -6 l7 41 42 -39 c22 -22 50 -45 61 -53 11 -7 -15 19 -57 59 -43 40 -78
78 -78 84 0 6 14 -2 31 -19 25 -22 22 -16 -12 27 -24 30 -61 80 -81 110 -21
30 -38 49 -38 42z m57 -85 c44 -65 47 -72 35 -64 -11 6 -72 93 -72 102 0 12
11 0 37 -38z"/>
<path d="M540 1581 c5 -11 15 -23 21 -27 6 -3 3 5 -6 20 -20 30 -30 35 -15 7z"/>
<path d="M510 1583 c0 -6 8 -17 18 -24 16 -13 16 -13 2 6 -8 11 -16 22 -17 24
-2 2 -3 0 -3 -6z"/>
<path d="M2137 1543 c-27 -8 -46 -17 -44 -20 3 -3 22 0 41 7 20 6 40 9 46 5 5
-3 10 -2 10 4 0 5 10 12 23 14 20 4 20 4 -3 5 -14 0 -47 -7 -73 -15z"/>
<path d="M540 1536 c0 -2 8 -10 18 -17 15 -13 16 -12 3 4 -13 16 -21 21 -21
13z"/>
<path d="M610 1490 c43 -54 43 -54 7 -21 -20 19 -40 32 -44 28 -7 -8 23 -302
37 -357 8 -29 8 -26 4 20 -3 30 -7 67 -10 83 -3 15 -1 27 4 27 20 0 40 -40 71
-137 17 -57 35 -103 40 -103 13 0 60 94 75 151 10 39 11 58 3 67 -8 10 -7 16
2 22 7 4 9 10 5 12 -13 8 -52 3 -61 -7 -5 -4 -1 -5 7 0 11 6 12 5 4 -4 -6 -7
-18 -13 -25 -14 -8 -2 -19 -6 -26 -10 -8 -5 -16 3 -23 25 l-10 33 5 -33 5 -33
-35 27 c-19 14 -35 30 -35 35 0 4 14 24 31 44 34 38 27 47 -14 15 l-25 -20 -4
58 c-2 31 -3 59 -2 60 1 2 33 -22 70 -53 77 -66 175 -115 242 -123 42 -5 46
-3 34 10 -11 14 -9 15 25 7 52 -12 86 -11 78 1 -4 6 -14 8 -23 6 -10 -3 -50 3
-89 13 -78 19 -93 15 -40 -12 l32 -17 -30 7 c-32 6 -116 42 -100 43 5 0 -18
19 -50 43 -33 24 -87 70 -119 103 l-60 59 44 -55z m88 -80 c71 -58 87 -71 72
-64 -23 12 -120 84 -120 89 0 10 13 4 48 -25z m87 -209 c-8 -37 -15 -38 -41
-10 -19 22 -19 22 4 14 19 -5 23 -3 22 12 -4 30 -1 38 11 26 7 -7 8 -24 4 -42z
m-57 -27 c4 2 16 -2 26 -9 18 -14 17 -16 -9 -60 -15 -26 -28 -45 -30 -43 -5 4
-55 159 -55 167 0 3 14 -9 31 -27 16 -18 33 -31 37 -28z"/>
<path d="M730 1160 c0 -5 5 -10 11 -10 5 0 7 5 4 10 -3 6 -8 10 -11 10 -2 0
-4 -4 -4 -10z"/>
<path d="M2292 1520 c0 -14 2 -19 5 -12 2 6 2 18 0 25 -3 6 -5 1 -5 -13z"/>
<path d="M2324 1524 c-18 -14 -18 -14 6 -3 31 14 36 19 24 19 -6 0 -19 -7 -30
-16z"/>
<path d="M2419 1523 c-13 -16 -12 -17 4 -4 9 7 17 15 17 17 0 8 -8 3 -21 -13z"/>
<path d="M2348 1484 c-27 -13 -48 -27 -48 -29 0 -3 23 6 50 20 28 14 50 28 50
30 0 7 1 7 -52 -21z"/>
<path d="M441 1486 c-2 -40 59 -294 84 -351 7 -16 27 -65 44 -109 31 -77 50
-117 51 -105 0 4 -13 38 -29 75 -46 109 -99 279 -125 399 -14 61 -25 102 -25
91z"/>
<path d="M2548 1493 c6 -2 18 -2 25 0 6 3 1 5 -13 5 -14 0 -19 -2 -12 -5z"/>
<path d="M1112 1467 c-27 -28 -28 -37 -4 -36 11 0 13 2 4 6 -10 4 -8 11 9 29
12 13 20 24 17 24 -2 0 -14 -10 -26 -23z"/>
<path d="M2198 1483 c7 -3 16 -2 19 1 4 3 -2 6 -13 5 -11 0 -14 -3 -6 -6z"/>
<path d="M2603 1483 c9 -2 23 -2 30 0 6 3 -1 5 -18 5 -16 0 -22 -2 -12 -5z"/>
<path d="M2658 1473 c6 -2 18 -2 25 0 6 3 1 5 -13 5 -14 0 -19 -2 -12 -5z"/>
<path d="M852 1432 c80 -69 150 -122 161 -122 7 0 -1 12 -18 26 l-30 25 30 -5
c19 -4 5 6 -35 25 -36 17 -79 42 -97 55 -44 33 -51 30 -11 -4z"/>
<path d="M2118 1453 c7 -3 16 -2 19 1 4 3 -2 6 -13 5 -11 0 -14 -3 -6 -6z"/>
<path d="M2398 1408 c-37 -38 -55 -48 -80 -48 -18 0 -40 -5 -48 -11 -11 -8 -3
-9 32 -6 l46 4 7 -58 c6 -53 10 -60 33 -65 44 -10 48 -12 20 -13 -39 -1 -79
16 -117 52 -32 30 -33 30 -15 5 10 -15 36 -36 56 -45 28 -14 38 -26 43 -53 4
-19 18 -59 32 -88 14 -29 23 -55 22 -56 -2 -2 -44 -11 -94 -20 -91 -17 -327
-90 -413 -127 -26 -11 -96 -41 -157 -67 -76 -33 -111 -53 -113 -66 -2 -10 11
-38 28 -63 19 -26 29 -48 23 -52 -48 -31 -83 -57 -83 -63 0 -5 -8 -8 -17 -8
-10 0 -49 -21 -88 -46 -109 -70 -133 -71 -211 -1 -62 55 -149 113 -242 162
-82 43 -160 120 -205 203 -25 47 -26 52 -10 52 10 1 -2 8 -25 16 -24 9 -46 13
-49 10 -3 -3 6 -8 20 -11 22 -6 27 -14 33 -58 4 -29 9 -55 10 -59 1 -5 2 -17
3 -29 1 -27 21 -14 21 14 1 19 5 17 33 -18 17 -22 46 -53 63 -70 42 -41 74
-175 73 -310 l0 -50 -18 50 c-51 139 -124 307 -147 339 -14 19 -15 13 -13 -67
3 -103 18 -141 19 -47 l1 65 24 -49 c24 -47 105 -249 105 -260 0 -2 -12 1 -27
9 -22 12 -30 12 -54 -1 -28 -14 -79 -73 -79 -90 0 -12 -103 -164 -111 -164
-10 0 -50 99 -44 109 2 5 2 23 -1 41 -4 18 -10 27 -14 20 -9 -15 3 -78 29
-151 19 -56 19 -57 0 -90 l-20 -34 26 30 c14 17 35 46 45 65 11 20 19 28 20
19 0 -18 30 -36 30 -19 0 6 -4 10 -9 10 -24 0 -15 35 31 111 64 106 95 139
130 139 22 0 29 -6 36 -34 14 -50 4 -92 -45 -188 -7 -16 -11 -28 -8 -28 12 0
75 143 75 171 0 28 2 30 17 18 15 -13 16 -5 9 116 -4 72 -11 150 -16 175 -4
25 -7 46 -5 48 8 8 205 -119 254 -164 31 -28 66 -56 78 -62 53 -28 135 -5 207
59 31 27 56 32 56 11 0 -10 -228 -206 -319 -275 -64 -48 -77 -54 -99 -46 -32
12 -56 4 -77 -27 -22 -34 -12 -42 13 -10 22 29 53 34 72 11 10 -12 9 -20 -5
-41 -9 -15 -12 -23 -6 -20 17 11 13 -24 -9 -71 l-19 -43 318 0 319 0 6 31 c16
80 -3 176 -56 292 -27 57 -29 71 -20 93 7 14 12 38 12 54 0 15 4 30 10 32 5 2
11 15 12 30 3 39 18 22 65 -74 49 -100 98 -246 122 -365 l18 -88 287 -3 c271
-2 286 -1 279 15 -12 25 -10 44 7 73 8 14 13 28 12 32 -1 4 41 51 93 105 89
93 94 100 95 142 0 34 -3 41 -13 33 -8 -7 -18 -7 -27 -2 -8 5 -22 4 -33 -2
-14 -7 -17 -7 -13 1 5 7 -4 14 -23 17 -25 5 -29 9 -20 20 6 7 8 18 4 24 -4 6
1 20 11 31 16 18 17 21 1 36 -15 16 -18 15 -38 -3 -22 -19 -22 -19 -11 2 6 12
8 25 4 29 -4 4 4 5 18 1 14 -3 19 -3 12 0 -6 3 -10 9 -7 14 2 4 -7 7 -22 7
-33 0 -98 -31 -135 -65 -27 -25 -41 -19 -16 6 9 9 9 12 0 12 -7 0 -12 9 -12
21 0 11 5 17 10 14 6 -4 10 18 10 59 0 37 -4 66 -10 66 -5 0 -10 22 -10 49 0
47 2 50 28 53 25 3 27 7 30 56 2 42 6 52 21 52 14 0 19 11 24 52 4 34 3 55 -5
59 -15 9 115 23 145 15 22 -5 23 -8 23 -148 1 -118 5 -158 24 -228 13 -46 25
-79 27 -73 2 6 -3 36 -13 65 -12 37 -18 102 -21 220 l-5 167 -31 10 c-37 14
-99 14 -156 0 -53 -12 -65 -4 -97 66 -29 61 -31 95 -6 95 9 0 35 9 57 20 l40
20 -42 -5 c-23 -3 -53 -1 -67 5 -22 8 -26 16 -26 48 0 21 6 47 14 57 14 19 15
19 43 -9 76 -77 201 -154 293 -181 39 -11 11 10 -37 28 -97 37 -273 172 -273
208 0 10 3 19 8 19 7 0 36 41 30 43 -2 1 -24 -19 -50 -45z m25 -405 c-7 -2
-19 -2 -25 0 -7 3 -2 5 12 5 14 0 19 -2 13 -5z m267 -606 c0 -2 -10 -12 -22
-23 l-23 -19 19 23 c18 21 26 27 26 19z m-152 -297 c-7 -11 -19 -22 -28 -25
-8 -4 -4 5 9 19 29 31 36 33 19 6z m-48 -49 c0 -5 -7 -12 -16 -15 -14 -5 -15
-4 -4 9 14 17 20 19 20 6z"/>
<path d="M2150 1429 c0 -5 5 -7 10 -4 6 3 10 8 10 11 0 2 -4 4 -10 4 -5 0 -10
-5 -10 -11z"/>
<path d="M2266 1425 c-3 -8 -1 -15 4 -15 6 0 10 7 10 15 0 8 -2 15 -4 15 -2 0
-6 -7 -10 -15z"/>
<path d="M2110 1410 c0 -5 7 -10 16 -10 8 0 12 5 9 10 -3 6 -10 10 -16 10 -5
0 -9 -4 -9 -10z"/>
<path d="M2175 1411 l-30 -7 25 -7 c16 -4 30 -1 40 8 15 16 12 16 -35 6z"/>
<path d="M2066 1397 c3 -10 9 -15 12 -12 3 3 0 11 -7 18 -10 9 -11 8 -5 -6z"/>
<path d="M1690 1390 c0 -5 5 -10 11 -10 5 0 7 5 4 10 -3 6 -8 10 -11 10 -2 0
-4 -4 -4 -10z"/>
<path d="M2160 1379 c0 -5 5 -7 10 -4 6 3 10 8 10 11 0 2 -4 4 -10 4 -5 0 -10
-5 -10 -11z"/>
<path d="M2420 1387 c0 -2 15 -16 33 -33 l32 -29 -29 33 c-28 30 -36 37 -36
29z"/>
<path d="M2191 1345 c1 -19 18 -51 18 -35 0 8 -4 22 -9 30 -5 8 -9 11 -9 5z"/>
<path d="M2230 1331 c0 -6 4 -12 9 -15 4 -3 7 -18 5 -33 -4 -27 -3 -28 5 -3 4
14 4 33 -1 43 -10 19 -18 22 -18 8z"/>
<path d="M2520 1300 c19 -17 44 -36 55 -42 27 -14 10 1 -45 41 l-45 33 35 -32z"/>
<path d="M2212 1260 c0 -19 2 -27 5 -17 2 9 2 25 0 35 -3 9 -5 1 -5 -18z"/>
<path d="M2604 1265 c15 -11 16 -15 5 -15 -15 -1 30 -29 46 -29 6 0 -1 6 -14
13 -15 8 -19 15 -11 18 7 2 -1 9 -16 16 -27 11 -27 11 -10 -3z"/>
<path d="M1907 1175 c3 -55 7 -102 9 -104 7 -8 3 114 -6 159 -6 31 -7 15 -3
-55z"/>
<path d="M1720 1255 c0 -5 5 -17 10 -25 5 -8 10 -10 10 -5 0 6 -5 17 -10 25
-5 8 -10 11 -10 5z"/>
<path d="M292 1040 c-51 -61 -91 -110 -88 -110 3 0 41 40 85 90 44 49 82 86
84 82 3 -4 8 -41 11 -82 10 -104 36 -252 48 -270 7 -11 8 -9 4 10 -4 14 -15
104 -26 200 -12 96 -22 178 -23 182 -1 4 -44 -42 -95 -102z"/>
<path d="M472 1090 c0 -14 2 -19 5 -12 2 6 2 18 0 25 -3 6 -5 1 -5 -13z"/>
<path d="M1782 1088 c3 -7 13 -37 23 -66 9 -29 19 -52 21 -49 5 5 -36 127 -43
127 -3 0 -3 -6 -1 -12z"/>
<path d="M621 1079 c-2 -26 37 -162 59 -206 28 -58 27 -85 -2 -47 -32 43 -44
53 -24 20 16 -24 18 -44 14 -125 -3 -53 -2 -85 2 -71 5 14 8 52 9 84 l1 59 22
-19 c21 -19 21 -19 15 6 -14 51 -20 165 -9 155 17 -16 68 -151 98 -258 15 -54
28 -96 30 -94 13 13 -83 325 -125 403 l-20 39 -1 -64 c0 -86 -15 -71 -45 46
-13 48 -24 81 -24 72z"/>
<path d="M497 1067 c-3 -8 -8 -61 -11 -118 -6 -118 -1 -114 9 6 9 98 18 90 64
-54 51 -160 73 -297 52 -330 -8 -12 -16 -9 -46 17 -52 46 -60 39 -11 -11 l41
-43 27 29 c35 38 58 32 86 -23 23 -44 25 -88 8 -135 -5 -13 -2 -11 8 5 17 28
21 87 7 123 -12 31 -62 79 -77 73 -12 -5 -20 24 -30 109 -11 88 -92 347 -114
360 -4 3 -10 -1 -13 -8z"/>
<path d="M720 1013 c0 -12 38 -48 45 -41 3 2 -6 15 -20 28 -14 13 -25 19 -25
13z"/>
<path d="M1923 950 c0 -25 2 -35 4 -22 2 12 2 32 0 45 -2 12 -4 2 -4 -23z"/>
<path d="M1285 910 c-13 -5 -14 -9 -5 -9 8 0 24 4 35 9 13 5 14 9 5 9 -8 0
-24 -4 -35 -9z"/>
<path d="M620 901 c0 -6 4 -13 10 -16 6 -3 7 1 4 9 -7 18 -14 21 -14 7z"/>
<path d="M1851 884 c0 -11 3 -14 6 -6 3 7 2 16 -1 19 -3 4 -6 -2 -5 -13z"/>
<path d="M473 775 c0 -38 2 -53 4 -32 2 20 2 52 0 70 -2 17 -4 1 -4 -38z"/>
<path d="M1120 824 c-16 -8 -19 -14 -9 -14 8 0 24 7 35 15 24 18 7 18 -26 -1z"/>
<path d="M266 774 c-3 -9 -6 -38 -6 -64 0 -27 -8 -71 -18 -97 -11 -26 -24 -95
-31 -153 -7 -58 -23 -137 -37 -176 -13 -39 -24 -81 -24 -93 0 -46 44 -191 58
-191 7 0 11 4 7 9 -3 5 -1 12 5 16 5 3 9 21 9 38 l-2 32 -7 -35 -7 -35 -2 35
c-1 27 -4 31 -11 20 -7 -11 -8 -5 -4 20 4 26 3 31 -5 20 -9 -12 -11 -9 -11 14
0 21 4 27 15 23 11 -5 10 3 -6 32 l-20 39 26 67 c14 38 30 74 36 81 6 8 11 30
11 51 0 21 5 44 10 51 8 9 6 18 -7 32 -18 19 -17 23 8 99 15 43 27 99 27 125
0 41 2 46 23 46 24 0 66 -38 86 -77 6 -12 12 -52 13 -90 2 -67 2 -67 5 -13 6
78 -4 115 -39 155 -23 27 -38 35 -63 35 -21 0 -35 -6 -39 -16z"/>
<path d="M1185 760 c-18 -8 -17 -9 8 -9 15 -1 27 4 27 9 0 12 -8 12 -35 0z"/>
<path d="M455 655 c8 -49 9 -49 32 -36 17 10 17 10 1 11 -10 0 -18 8 -18 18 0
9 -5 24 -11 32 -8 11 -9 5 -4 -25z"/>
<path d="M841 552 c0 -9 4 -26 8 -37 7 -17 9 -15 13 12 3 21 0 34 -9 37 -8 3
-13 -2 -12 -12z"/>
<path d="M425 488 c2 -36 11 -82 19 -102 l15 -35 -47 -57 -47 -57 -6 34 c-6
33 -6 32 -8 -10 0 -26 -8 -53 -18 -65 -10 -12 8 4 40 34 31 30 57 50 57 45 0
-6 12 9 26 33 28 47 41 51 24 8 -7 -20 -7 -25 1 -20 8 4 9 -1 4 -17 -9 -28 -3
-24 15 10 8 15 8 21 1 17 -6 -4 -11 0 -11 8 0 9 9 16 20 16 21 0 28 16 9 22
-7 2 -12 18 -13 36 -1 28 -3 30 -13 15 -7 -9 -13 -20 -13 -25 0 -4 -5 -8 -11
-8 -6 0 -9 6 -6 14 3 7 0 19 -6 25 -6 6 -17 41 -24 79 l-13 67 5 -67z"/>
<path d="M0 343 l0 -110 50 -21 c27 -12 50 -17 50 -13 0 15 -82 236 -91 246
-5 5 -9 -33 -9 -102z m60 -93 c0 -5 -4 -10 -10 -10 -5 0 -10 5 -10 10 0 6 5
10 10 10 6 0 10 -4 10 -10z"/>
<path d="M366 425 c-3 -9 -5 -35 -5 -58 2 -40 2 -39 9 13 7 59 6 71 -4 45z"/>
<path d="M580 210 c-6 -11 -8 -20 -6 -20 3 0 10 9 16 20 6 11 8 20 6 20 -3 0
-10 -9 -16 -20z"/>
<path d="M301 134 c-6 -21 -11 -52 -10 -69 l0 -30 11 25 c18 43 26 87 18 101
-5 8 -12 -1 -19 -27z"/>
<path d="M536 132 c-15 -30 -8 -110 8 -84 4 7 5 25 2 38 -4 14 -3 23 1 21 4
-3 9 8 10 24 3 36 -3 37 -21 1z"/>
<path d="M328 103 c-3 -13 -3 -23 0 -24 4 0 15 -2 24 -4 23 -4 33 11 13 19 -8
3 -15 0 -16 -7 -1 -7 -4 -1 -8 13 -7 25 -7 25 -13 3z"/>
<path d="M1079 112 c-22 -10 -101 -103 -94 -111 4 -3 16 5 26 19 11 14 36 42
56 63 20 20 34 37 32 36 -2 0 -11 -3 -20 -7z"/>
<path d="M856 49 c-26 -30 -35 -56 -16 -44 6 3 10 11 10 17 0 7 10 22 22 35
12 13 19 23 16 23 -4 0 -18 -14 -32 -31z"/>
<path d="M654 18 l-19 -23 23 19 c21 18 27 26 19 26 -2 0 -12 -10 -23 -22z"/>
<path d="M281 14 c0 -11 3 -14 6 -6 3 7 2 16 -1 19 -3 4 -6 -2 -5 -13z"/>
<path d="M476 13 c-6 -14 -5 -15 5 -6 7 7 10 15 7 18 -3 3 -9 -2 -12 -12z"/>
</g>
</svg>
